<?xml version="1.0" encoding="UTF-8" standalone="no"?>
<svg width="58px" height="97px" viewBox="0 0 58 97" version="1.1" xmlns="http://www.w3.org/2000/svg" xmlns:xlink="http://www.w3.org/1999/xlink" xmlns:sketch="http://www.bohemiancoding.com/sketch/ns">
    <!-- Generator: Sketch 3.3.2 (12043) - http://www.bohemiancoding.com/sketch -->
    <title>bnu logo</title>
    <desc>Created with Sketch.</desc>
    <defs></defs>
    <g id="Page-1" stroke="none" stroke-width="1" fill="none" fill-rule="evenodd" sketch:type="MSPage">
        <g id="bnu-logo" sketch:type="MSLayerGroup" fill="#FFFFFF">
            <path d="M0.0697490858,67.7558984 L0.0697490858,66.6978748 C0.269587486,65.0845764 0.878613069,63.9403894 1.76717164,63.0496469 C2.59325062,62.2215215 3.93698329,61.5018119 5.50138089,61.5904333 C7.03977542,61.6773729 8.16729738,62.3943657 8.99795097,63.3050319 C9.85183879,64.2413142 10.4620682,65.462867 10.4916828,67.1721613 C10.5208159,68.8571331 9.87483224,70.1802448 9.06584787,71.1122578 C8.20955237,72.0987374 7.08540117,72.7014926 5.56927779,72.8269858 C4.04761672,72.9529964 2.70881982,72.2732634 1.83506855,71.44061 C0.956742661,70.6038165 0.214571734,69.3004991 0.0697490858,67.7558984" id="Fill-33" sketch:type="MSShapeGroup"></path>
            <path d="M57.1017024,66.9168539 L57.1017024,67.5734288 C56.9126986,69.2277389 56.3932392,70.3860277 55.5061252,71.2947533 C54.6937701,72.1267599 53.4628378,72.8592776 51.9075894,72.863547 C49.5269843,72.8698863 47.8546018,71.2712072 47.155047,69.6529925 C46.6959002,68.5906995 46.5489106,67.3027776 46.7476656,66.1506988 C47.2726627,63.1083311 50.4173487,60.5214905 53.8087027,61.9917009 C55.539231,62.7418135 56.9012621,64.4472265 57.1017024,66.9168539" id="Fill-35" sketch:type="MSShapeGroup"></path>
            <path d="M55.0308349,42.7652847 C55.0597272,42.7585572 55.0629775,42.7795159 55.0647833,42.8017683 C55.5084005,45.468821 55.8664242,48.1554092 55.641907,50.9738299 C55.3238509,54.9661937 53.7802799,57.8958764 50.9910896,59.3649224 C50.0880848,59.8403732 49.2633301,60.4736608 48.5469215,61.1889717 C47.1864553,62.5474026 45.8820884,64.5600797 45.8990626,67.2451155 C45.9119438,69.2964755 46.8593704,70.881441 47.9357289,71.8783999 C49.114294,72.9699315 50.6223516,73.5541862 52.450873,73.8485129 L52.450873,75.4173065 C47.8107698,75.2791347 44.6427292,73.6343983 42.6060629,70.6745714 C41.607232,69.2229909 40.9002134,67.3804411 40.5691558,65.2021647 C40.2427932,63.0540327 40.4644212,60.5468867 41.1802279,58.5987674 C41.868587,56.7254264 42.9103951,55.3530231 44.0996744,54.0749336 C45.2842586,52.8020192 46.7965297,51.9529352 48.2413854,50.8645086 C49.5819881,49.8546122 50.9620769,48.6791167 52.1113884,47.3620855 C53.2743035,46.0295295 54.4358943,44.5795015 55.0308349,42.7652847 L55.0308349,42.7652847 Z M2.10658392,42.8017941 C3.57948924,46.2898566 6.07746925,48.7293398 8.89603339,50.8644051 C10.3543722,51.9690035 11.8552067,52.8025626 13.0716929,54.0384759 C15.3447945,56.3479379 17.3682185,60.3603547 16.6022114,65.2386742 C15.591944,71.6720737 11.4698557,75.1834235 4.68666621,75.4173324 L4.68666621,73.8485387 C7.99013943,73.2614378 10.4276864,71.7904512 11.1026827,68.4126157 C11.8281202,64.7823708 9.6430197,61.826037 7.53821573,60.2404247 C6.92425437,59.7779113 6.28453072,59.4689653 5.70499936,59.1095633 C3.89044261,57.9838768 2.70766413,56.267467 2.00473857,53.8925417 C1.03793002,50.6258387 1.46637874,46.3942617 2.10658392,42.8017941 L2.10658392,42.8017941 Z M27.8049355,63.1955682 C28.0537704,63.6456617 28.2650453,64.1361199 28.6196983,64.4724933 C28.8402428,64.0284804 29.1495108,63.6798165 29.3324954,63.1955682 C29.0681308,62.7866158 28.862514,62.31427 28.5518014,61.9551267 C28.3094672,62.3757228 28.0747173,62.8045989 27.8049355,63.1955682 L27.8049355,63.1955682 Z M26.7525335,61.1526175 C26.7785365,61.6065922 27.2405725,61.8731034 27.3296571,62.3565754 C27.6454259,61.9661235 27.8415324,61.4473323 28.0765231,60.9701996 C27.7717093,60.5559429 27.6292944,59.9671601 27.2957087,59.5838238 C27.2765675,59.9683245 26.7349573,60.845224 26.7525335,61.1526175 M29.0949766,61.0065538 C29.3202161,61.4697141 29.5240272,61.9561617 29.8077737,62.3565754 C30.0212155,61.9411543 30.2474182,61.5397056 30.4188458,61.0796503 C30.179762,60.6069164 30.0371063,60.0304242 29.8077737,59.5473403 C29.599388,60.0652259 29.3157619,60.5022525 29.0949766,61.0065538 M27.8049355,58.0150302 C28.0678554,58.6444365 28.254933,59.3554781 28.6196983,59.8756924 C28.7068567,59.5446234 28.8661255,59.2734547 28.9931312,58.9636031 C29.1042462,58.6921757 29.3193734,58.3248818 29.3324954,58.0150302 C29.34333,57.7661139 29.2015169,57.4734691 29.128925,57.1760374 C28.9136774,56.2951273 28.7617521,55.3540581 28.5518014,54.5127365 C28.3903657,55.7743954 28.0836258,56.8796407 27.8049355,58.0150302 M24.885489,56.0815302 C24.9541082,56.9158655 25.4575566,57.6201796 25.6322346,58.3068988 C25.745998,57.7115179 25.9091191,57.1694393 26.0056675,56.5558166 C25.6399392,55.550319 25.2205193,54.6026517 25.0211625,53.4182293 C25.0720851,54.3767641 24.8168698,55.2495236 24.885489,56.0815302 M31.1317633,56.5921708 C31.3011444,57.1398126 31.3548359,57.8119124 31.5730931,58.3068988 C31.6768647,57.5728286 32.2258183,56.8053798 32.2860106,56.0449172 C32.3322383,55.4604038 32.178146,54.7569953 32.1502168,54.0749336 C32.1408268,53.8446473 32.1852487,53.5892622 32.1162684,53.3452622 C31.9718069,54.6250335 31.4985751,55.551354 31.1317633,56.5921708 M30.6904334,53.4182293 C31.2230148,50.8324237 31.5887431,47.4197865 31.1996602,44.4070455 C30.6250646,46.9778436 30.3179635,50.3778022 30.6904334,53.4182293 M26.4809459,53.3818751 C26.7984,50.2952613 26.565817,46.8222063 25.9038222,44.3340783 C25.6524592,47.4715363 25.8689107,50.832165 26.4809459,53.3818751 M32.5236498,40.2115639 C32.7402216,41.9367712 32.7727255,43.8596625 32.8291858,45.7569377 C33.0110869,44.3643519 33.4638533,43.0756538 33.9494847,41.9626461 C34.1179028,41.5765929 34.4020104,41.1591018 34.4585911,40.8317847 C34.6618003,39.6565479 34.3335115,37.6587488 34.3567458,36.6726573 C33.6776563,37.779067 33.0344415,38.9241595 32.5236498,40.2115639 M22.7127882,38.8251881 C22.7127882,39.5241979 22.5952928,40.3233434 22.7127882,40.9047518 C22.7763512,41.2195197 23.0644315,41.6024678 23.2220149,41.9626461 C23.7316029,43.1272742 24.0925158,44.3551664 24.3423138,45.6839705 C24.3400265,44.2079383 24.4167115,42.8454968 24.5119357,41.5613268 C24.5452822,41.1127858 24.6619349,40.6077083 24.6139014,40.2115639 C24.5833237,39.9600601 24.3768642,39.5666327 24.2404685,39.262991 C23.8285124,38.3457267 23.2131065,37.339841 22.7467366,36.6726573 C22.7413193,37.3667508 22.7127882,38.0917648 22.7127882,38.8251881 M27.6351932,35.0673801 C27.5481551,35.3649411 27.3882844,35.7663898 27.397554,35.9794694 C27.4093517,36.2519319 27.6572236,36.6452299 27.770987,36.9645259 C28.1562177,38.0466132 28.3782068,39.0841956 28.5857498,40.2479181 C28.7981082,38.6156017 29.2794058,37.2723075 29.7738252,35.9431152 C29.3853442,34.7432973 29.0772801,33.4569279 28.5518014,32.4042086 C28.2772042,33.1861473 27.8951035,34.1796131 27.6351932,35.0673801 M23.9688809,30.2153236 C24.6426733,31.0842019 25.2580793,32.0159561 25.9038222,32.9149786 C26.0606833,31.9005542 26.3730813,30.9765624 26.6846366,30.1057435 C26.771795,29.8621316 27.0037761,29.3756839 26.9901726,29.1937835 C26.9663365,28.8744876 26.4408578,28.3362902 26.1754098,27.9898256 C25.7785018,27.4715519 25.4810315,27.0864044 25.1569563,26.8224807 C24.7171914,27.9062498 24.3324423,29.0495311 23.9688809,30.2153236 M30.1473786,29.2302671 C30.646493,30.3476736 30.9736983,31.6498266 31.3015055,32.9514622 C31.6969689,32.2136402 32.1759791,31.5800939 32.693392,30.9085115 C32.8450766,30.7116037 33.1492884,30.3873915 33.1686703,30.2153236 C33.1840796,30.0780574 33.0086792,29.5747911 32.9310312,29.3397178 C32.6616105,28.5244005 32.2294299,27.3434713 31.9465261,26.7858677 C31.3426771,27.5962688 30.6399923,28.3004535 30.1473786,29.2302671 M28.5518014,20.6933697 C27.888362,21.5855354 27.3005241,22.5590776 26.718585,23.5389591 C27.3720325,24.369025 27.9745573,25.253687 28.6196983,26.0926798 C29.1309716,25.1464356 29.8370271,24.4093898 30.4188458,23.5389591 C29.8420833,22.5413533 29.2836192,21.5240826 28.5518014,20.6933697 M2.03866295,0.737372626 L2.07273178,0.737372626 C2.51707126,3.90976163 4.62596831,5.8430029 6.96106798,7.01228848 C9.40872723,8.23798129 12.576527,8.54058795 15.3122666,9.42020432 C20.176887,10.9843405 24.9969652,13.4176137 27.9746777,17.1909467 C28.1552546,17.4199393 28.501601,17.9581367 28.5857498,17.9571017 C28.6854283,17.9559373 29.0304505,17.3693539 29.1968219,17.1544631 C32.1432345,13.3496922 37.0053269,10.9936554 41.92713,9.42020432 C44.7325722,8.52325179 47.8431893,8.17096537 50.2782082,6.97580491 C52.6979382,5.78840691 54.5103281,3.96759198 55.0987679,0.737372626 L55.1327163,0.737372626 C55.4325943,4.73762825 53.7527479,6.89921528 51.6360259,8.43514784 C50.5784473,9.202726 49.3126035,9.85490221 47.9697135,10.2593265 C46.5849297,10.6764295 45.0917998,10.9441051 43.6245525,11.3538337 C42.2166549,11.746873 40.8346399,12.2167608 39.4828415,12.667113 C38.1110592,13.1241926 36.7969412,13.5913635 35.6128384,14.2723902 C33.2771369,15.6156843 31.3255825,17.3364928 29.6381518,19.3434775 C30.2860616,20.3252996 30.9527514,21.2869393 31.5051962,22.3714847 C34.7198256,19.2414011 38.8425159,16.7544375 43.5904837,15.1843501 C44.8735425,14.760261 46.1309595,14.5373489 47.3248133,14.1629395 C50.8537669,13.055883 53.6982137,10.9519969 55.1666648,7.48657493 C55.6808273,10.9429407 54.3330016,13.3762139 52.4509091,14.8196438 C52.0028377,15.1631328 51.4503928,15.4837224 50.9232288,15.8045709 C48.3383311,17.3782808 45.3638689,18.7004869 42.3684598,19.7812804 C41.1492048,20.2211533 39.9442756,20.642655 38.8379413,21.2404939 C36.629727,22.4337138 34.7632845,23.895903 33.1007734,25.5820392 C33.5434275,26.6628327 33.9521332,27.7801098 34.3227973,28.9383985 C36.5044066,26.7557235 39.0705243,24.8299859 42.0629238,23.3930248 C43.0793308,22.9050246 44.1524389,22.6007361 45.2539578,22.1890668 C49.3880846,20.6442075 53.1222939,18.1254178 55.1327163,14.2723902 C55.1955571,15.7110332 55.1667852,16.857937 55.1666648,18.2854539 C55.1666648,18.69156 55.2019375,19.1732208 55.1327163,19.5623789 C55.0651806,19.9422221 54.6037465,20.5778384 54.3179535,20.9851089 C53.4106149,22.2787233 52.2442087,23.431449 51.092971,24.3780812 C47.8334382,27.0584595 43.5251149,28.280918 40.0260167,30.7989314 C38.7446433,31.7212413 37.6656363,32.6791292 36.5294466,33.9000351 C36.2286056,34.2233417 35.6123569,34.7733121 35.5449415,35.103993 C35.474637,35.4487757 35.6257196,35.9795988 35.6467869,36.4537559 C35.6841061,37.2952068 35.6529265,38.0455782 35.6467869,38.8616717 C38.1223754,35.5822901 41.3825101,32.7999648 45.3559235,31.0178328 C49.3035746,29.2473445 52.8029136,26.6903894 55.2006132,23.3200576 L55.2006132,26.4939991 C55.2006132,27.5121754 55.2606851,28.6087526 55.1666648,29.5951028 C55.0608467,30.7057818 54.3401043,31.7262869 53.7070018,32.5136593 C51.7885531,34.8991934 48.9648124,36.5065406 46.543999,38.241451 C44.8218976,39.4755531 43.0358719,40.5258143 41.553697,41.8531953 C38.6193229,44.481177 36.0664475,48.037161 35.0018867,52.7250414 C34.4470342,55.1675002 34.3285758,58.0521606 34.7980756,60.7877818 C35.6529265,65.7674014 37.7578509,69.5265032 40.4673466,72.6080714 C36.3290063,69.4550885 33.4878099,64.5913883 32.4897013,57.9421924 C32.4131367,58.4868585 31.9325615,59.0088841 31.9125777,59.5838238 C31.9006596,59.9273128 32.177183,60.5903565 32.3199591,61.0065538 C33.3781395,64.0910976 34.8666948,67.2101844 36.4615497,69.5434512 C34.1242831,67.7139682 32.2330414,65.0889622 30.8601757,62.101061 C30.6467338,62.4554174 30.5108196,62.8930909 30.283052,63.2320518 C31.5851316,65.4932571 33.0379327,67.5923563 34.7980756,69.3611627 C32.8697554,68.0529291 31.247814,66.0988585 29.9097394,64.0346904 C29.6257522,64.410523 29.4359057,64.8876556 29.1628735,65.2750025 C30.8212915,68.0004031 33.1721615,70.0414132 35.8165292,71.695982 C38.4605357,73.3504215 41.5266105,74.6417071 44.9484217,75.4173065 C37.4524352,74.70523 32.1435957,71.3259713 28.5857498,66.2601884 C24.9976875,71.3299819 19.7729968,74.6419659 12.2229575,75.4537901 C19.003017,73.7046486 24.5128988,70.5900899 28.0086262,65.3114861 C27.769422,64.8876556 27.4972325,64.4991444 27.2957087,64.0346904 C25.900933,66.0502138 24.3681965,67.9174741 22.4412006,69.3611627 C24.0164328,67.5882163 25.6033423,65.5114989 26.8543788,63.2685354 C26.7075096,62.8669573 26.4799828,62.5520601 26.3451521,62.1375446 C24.879831,65.0256981 23.1161969,67.59365 20.7777264,69.5434512 C22.2275179,67.194142 23.7799975,64.1319799 24.8175921,60.9701996 C24.9529044,60.5576247 25.2618112,59.9544814 25.258922,59.6203074 C25.254227,59.1213105 24.7299522,58.4743092 24.6817983,57.9421924 C23.655279,64.536663 20.912196,69.2867725 16.805878,72.5717172 C19.3381677,69.4578054 21.5660047,65.7195329 22.3733037,60.7146852 C22.8234216,57.92408 22.6491047,55.0464058 22.101716,52.6157201 C21.0479898,47.9365078 18.4931883,44.428651 15.5158369,41.7802282 C14.0373939,40.4651377 12.2417375,39.4348002 10.525535,38.2049674 C9.7071606,37.618384 8.86591317,37.0281781 8.01346996,36.4174017 C6.31821433,35.2023176 4.76079904,34.1417064 3.39660099,32.4406922 C2.76349849,31.6512498 2.07718601,30.6289335 1.97076604,29.5221357 C1.77333533,27.4668944 2.1217283,25.2780094 1.93693798,23.3200576 C1.98461027,23.2226387 2.0702037,23.4388233 2.1405083,23.5389591 C4.44900298,26.8235156 7.95123114,29.304528 11.7816277,30.9813493 C15.7721357,32.7282914 19.0162593,35.576727 21.4906439,38.8981553 C21.4782443,37.9825728 21.4923293,36.9786277 21.5585408,36.0160824 C21.5788858,35.7204619 21.6630346,35.3469581 21.6264377,35.1403472 C21.5680512,34.8112188 20.9526452,34.233821 20.642053,33.9000351 C19.5452291,32.7214346 18.4086783,31.6715615 17.1453626,30.7625772 C13.6474682,28.24534 9.32686572,27.1478572 6.04458018,24.3780812 C4.90429745,23.4157947 3.75811588,22.2868739 2.81947732,20.9487547 C2.53693472,20.5458829 2.07899178,19.9296728 2.00483488,19.5623789 C1.85447454,18.8189938 2.00483488,17.6583763 2.00483488,16.8625945 C2.00483488,16.0258011 1.95944989,15.1972876 1.97076604,14.2359066 C4.0257308,18.198773 7.73128851,20.5135393 11.9174215,22.1525833 C13.0161715,22.5827531 14.094095,22.9096821 15.1085759,23.3930248 C18.0340415,24.7867749 20.6480723,26.7364467 22.848582,28.9748821 C23.1733796,27.7916241 23.5991798,26.7170405 24.0367778,25.6550063 C23.7093317,25.1615724 23.2486199,24.7646519 22.8146335,24.3780812 C21.4993116,23.2064669 20.0253228,22.158017 18.3675068,21.2769775 C16.1663952,20.1073038 13.6236321,19.3994966 11.2724009,18.358421 C9.06286234,17.380092 6.65216115,16.2550525 4.75453904,14.8196438 C2.85378693,13.381777 1.49163542,11.0407477 1.97076604,7.52305851 C3.50241904,10.9177127 6.22383282,13.0460505 9.84668633,14.1629395 C11.0441517,14.5320446 12.2885671,14.811752 13.5469471,15.2209631 C18.3168249,16.7719031 22.4379502,19.1861583 25.5982861,22.3714847 C26.2488444,21.3803476 26.8059842,20.2886867 27.5333478,19.3799611 C25.8621691,17.3310591 23.8846117,15.6216355 21.5245924,14.2723902 C19.1866035,12.9356942 16.345407,12.1331849 13.5129987,11.3538337 C12.038408,10.9478569 10.5497323,10.6571527 9.1677173,10.2228429 C7.80183388,9.79357876 6.5861904,9.19250542 5.50128458,8.39866427 C3.40298137,6.86311983 1.67437921,4.67979791 2.03866295,0.737372626 L2.03866295,0.737372626 Z M55.0648074,32.6596195 C55.3247177,34.6290856 55.4927746,37.4018372 55.1666527,39.6278526 C54.894704,41.4842455 54.0163781,43.1049183 53.0618488,44.4434255 C52.0724079,45.8313538 50.9805198,46.9021855 49.6331756,47.7999143 C48.3054541,48.6845763 46.9805014,49.6697621 45.7292241,50.6819872 C43.2171591,52.7143292 40.8301737,54.8206734 39.6526921,58.2703117 C39.0393327,60.0673217 38.8098797,62.1490848 39.1772934,64.3629391 C39.656424,67.2482463 40.8525652,69.6132099 42.2664821,71.6595243 C42.7199708,72.3157112 43.3234587,73.0359383 43.8281108,73.5931537 C43.8130627,73.6461972 43.7983758,73.5895312 43.7603343,73.5931537 C40.2523277,71.5538255 37.520922,68.3921745 36.2238985,63.9617491 C35.5368637,61.6145099 35.3565276,58.6911665 35.7486202,56.0449431 C36.1147097,53.5747982 36.9576425,51.389665 37.9552695,49.58748 C39.9921766,45.9078141 42.864673,43.0465704 46.3063478,40.8681647 C49.6986648,38.7210676 52.8933104,36.0744561 55.0648074,32.6596195 L55.0648074,32.6596195 Z M2.07267159,32.6960643 C2.27563999,32.8304842 2.38567149,33.0839286 2.51400145,33.2798014 C4.56451198,36.4106613 7.72207909,38.9039642 10.8650797,40.9047389 C14.2776213,43.077064 17.2625569,45.9289927 19.2501063,49.6240541 C20.2456868,51.4747546 21.0541896,53.6671327 21.4228072,56.154355 C21.8155017,58.8043303 21.5885768,61.6769589 20.9135804,64.0346775 C19.6464124,68.460316 16.820264,71.5825078 13.3433166,73.6295985 C13.3144243,73.622871 13.3111739,73.6438297 13.3092478,73.6660821 C14.4438724,72.3275748 15.5804232,70.7602043 16.4664537,68.9598305 C17.3146835,67.2361757 18.0793663,65.2181942 18.1638763,62.7943653 C18.3434901,57.6377616 15.8778935,54.6225624 13.173454,52.1777749 C11.8793197,51.0078424 10.4041271,49.8701242 8.8960695,48.784932 C8.13511858,48.2372902 7.35948074,47.749937 6.65559211,47.1796547 C4.60869312,45.5215928 2.8290479,43.2694437 2.10662004,40.1021003 C1.61677519,37.9544857 1.82347551,35.0447266 2.07267159,32.6960643 L2.07267159,32.6960643 Z" id="Fill-15" sketch:type="MSShapeGroup"></path>
            <path d="M16.3645723,92.6735968 C16.4357195,91.8528458 16.1903758,90.927819 15.7535001,90.3386481 C14.7556324,88.9930253 12.40717,88.6456551 10.0843496,88.9522723 L10.0843496,95.190834 C12.8637887,95.9634577 16.1323504,95.351517 16.3645723,92.6735968 M15.9232424,85.0486594 C15.8758109,82.2096681 12.6531157,81.4427368 10.0843496,82.1665865 L10.0843496,87.9308617 C12.9605779,88.4637547 15.9736835,88.0624354 15.9232424,85.0486594 M6.14632923,81.1450464 C8.53439811,81.2590252 11.3843826,80.9643104 13.7167135,81.2180135 C15.9995662,81.466283 17.8605914,82.5397021 18.0619948,84.7569202 C18.257379,86.9093216 16.9969524,87.9765308 15.5498094,88.5145988 C17.2770874,89.0403763 18.9287638,89.9688962 18.7070154,92.5276625 C18.6297285,93.4186638 18.1656459,94.2828846 17.620665,94.8624818 C15.9223997,96.6682893 12.4738631,96.2488576 9.16774138,96.2488576 L6.7234529,96.2488576 C6.63280331,96.2488576 6.38348685,96.2617951 6.31607148,96.2488576 C6.03798311,96.1952966 6.12453962,96.2220771 6.11238078,96.0664397 C6.08830386,95.7585287 6.35953032,95.8559476 6.62160754,95.8475383 C7.25145966,95.8274853 7.74599951,95.6021151 7.94559714,95.1543504 C8.24403051,94.4847087 8.11533939,93.0227782 8.11533939,91.9804089 L8.11533939,85.3040444 C8.11533939,84.290008 8.2605232,82.9182516 7.91164869,82.2029406 C7.63873685,81.6435259 6.87537824,81.5193265 6.11238078,81.5098821 L6.11238078,81.2544971 C6.10949155,81.2027474 6.10684309,81.151127 6.14632923,81.1450464" id="Fill-39" sketch:type="MSShapeGroup"></path>
            <path d="M19.6575118,81.1450076 L21.5245563,81.1450076 C22.1037265,81.1450076 22.8633532,80.9869121 23.3577726,81.1450076 C23.6394725,81.2350522 24.2680004,82.252711 24.4780715,82.5313834 C26.9579938,85.8213737 29.6530434,89.2958519 32.1162322,92.4546566 L32.1162322,84.5744635 C32.1162322,83.675441 32.1752207,82.7579179 31.9125415,82.2030312 C31.5950874,81.5324838 30.7853807,81.6019579 30.0793252,81.4733597 C29.9836194,81.0690648 30.2394367,81.1450076 30.6226208,81.1450076 L34.4925034,81.1450076 C34.6640515,81.1450076 34.9488814,81.0514699 35.0356787,81.2545877 C35.1724355,81.6865687 34.6939068,81.5159239 34.35683,81.5464563 C33.1989711,81.6508614 32.998892,82.3810503 32.998892,83.7718249 C32.998892,87.9447953 33.0267008,92.5352568 32.9649435,96.5042038 C32.5805556,96.5773003 32.3691602,96.1581274 32.1841292,95.9204666 C29.2171308,92.1096151 26.3188721,88.114017 23.2898757,84.3189491 L23.2898757,92.673558 C23.2898757,93.6323515 23.209218,94.6267229 23.4935664,95.2274081 C23.8087333,95.8930393 24.6259038,95.8023478 25.3267828,95.9204666 C25.4159878,96.3158347 25.1877386,96.2467488 24.817556,96.2488188 C23.4225395,96.2569694 21.5140828,96.2997923 20.3704293,96.175981 C20.2417382,95.6423117 20.7106361,95.9123161 21.2191406,95.8476289 C22.6092213,95.670386 22.407216,94.0551469 22.407216,92.3087223 L22.407216,84.6839142 C22.407216,84.1969491 22.4988287,83.5938057 22.407216,83.1880877 C22.3361891,82.8730611 21.7601489,82.2679771 21.3887625,82.0206133 C20.8767668,81.6795825 20.3183028,81.5975591 19.6235634,81.5098433 L19.6235634,81.2545877 C19.6206741,81.2027086 19.6179053,81.1512176 19.6575118,81.1450076" id="Fill-41" sketch:type="MSShapeGroup"></path>
            <path d="M43.5225868,96.5771968 L42.232666,96.5771968 C40.0410648,96.4008596 38.6477337,95.5577268 37.8872643,93.8775418 C37.4531575,92.9179721 37.4121064,91.6041753 37.4121064,90.1927009 C37.4121064,88.2484628 37.4644737,85.9740613 37.4121064,83.9542686 C37.3763521,82.5753965 37.2636722,81.6655066 36.0881168,81.5463528 C35.675318,81.5044355 35.3984335,81.6598141 35.3751993,81.3639349 C35.3508816,81.052272 35.7060161,81.1450335 35.952323,81.1450335 L40.7389342,81.1450335 C41.0962356,81.1450335 41.3626467,81.054342 41.3839548,81.3274513 C41.4133286,81.702637 40.9604418,81.5204779 40.7049857,81.5463528 C39.1084455,81.7075532 39.3811165,83.3306841 39.3811165,85.1947101 L39.3811165,88.332168 C39.3811165,90.5715091 39.2612135,92.6993294 39.9582402,94.0234761 C41.1376479,96.2643696 45.094689,96.0659093 46.6118959,94.1327974 C47.1448384,93.4538407 47.3154233,92.4671024 47.3925898,91.1777574 C47.5179102,89.0857737 47.4266587,87.27091 47.4266587,85.0121629 C47.4266587,84.0892061 47.5823159,82.7746331 47.2228476,82.1300899 C47.047688,81.8157102 46.5839666,81.5889169 46.0687206,81.5463528 C45.7629438,81.5209954 45.4487401,81.6840071 45.4237001,81.3639349 C45.400827,81.0697376 45.5930812,81.1543484 45.8650299,81.1450335 C47.277141,81.0969062 48.4712357,81.1368829 49.8708268,81.1450335 C50.1412105,81.146586 50.3574212,81.038429 50.3800535,81.3274513 C50.4035285,81.6286349 50.2010417,81.5252647 49.9048956,81.5463528 C48.1263339,81.6731397 48.3432669,83.2178697 48.3431465,85.2310643 C48.3431465,86.2893467 48.3432669,87.3264116 48.3431465,88.1862337 C48.3431465,90.1067963 48.4767734,92.1515583 47.901937,93.658511 C47.2483691,95.3716864 45.5681616,96.4322975 43.5225868,96.5771968" id="Fill-43" sketch:type="MSShapeGroup"></path>
        </g>
    </g>
</svg>