<?xml version="1.0" encoding="UTF-8" standalone="no"?>
<svg width="27px" height="27px" viewBox="0 0 27 27" version="1.1" xmlns="http://www.w3.org/2000/svg" xmlns:xlink="http://www.w3.org/1999/xlink" xmlns:sketch="http://www.bohemiancoding.com/sketch/ns">
    <!-- Generator: Sketch 3.3.2 (12043) - http://www.bohemiancoding.com/sketch -->
    <title>Dailymotion Circle + Dailymotion</title>
    <desc>Created with Sketch.</desc>
    <defs></defs>
    <g id="Page-1" stroke="none" stroke-width="1" fill="none" fill-rule="evenodd" sketch:type="MSPage">
        <g id="Dailymotion-Circle-+-Dailymotion" sketch:type="MSLayerGroup">
            <path d="M26.9951593,13.4491154 C26.9951593,20.7072692 21.1178847,26.5911923 13.8679322,26.5911923 C6.61797966,26.5911923 0.740705085,20.7072692 0.740705085,13.4491154 C0.740705085,6.19096154 6.61797966,0.307038462 13.8679322,0.307038462 C21.1178847,0.307038462 26.9951593,6.19096154 26.9951593,13.4491154" id="Dailymotion-Circle" fill="#0064DC" sketch:type="MSShapeGroup"></path>
            <path d="M17.523265,11.6396794 L17.523265,11.3900228 C17.523265,10.0511148 17.5251603,8.71220681 17.5202865,7.37329882 C17.5198127,7.24316942 17.552474,7.18985485 17.6865037,7.16328198 C18.6403824,6.97416554 19.5923996,6.77586507 20.5625581,6.57692308 L20.5625581,6.77201589 C20.5625581,11.368177 20.5615766,15.9643381 20.566552,20.5604654 C20.5667212,20.7243258 20.5265123,20.7630202 20.3640182,20.7613657 C19.5013203,20.7524518 18.6384532,20.754444 17.7756876,20.760184 C17.6487655,20.7610281 17.612415,20.7278036 17.6161719,20.6010169 C17.6254457,20.2882201 17.619218,19.9749844 17.619218,19.6386535 C17.4258903,19.7945455 17.2580486,19.9405781 17.0794438,20.0721256 C16.2553641,20.679081 15.3104884,20.8766049 14.3143023,20.8073196 C12.0624676,20.6507186 10.5492517,19.4373818 9.82555889,17.3618617 C8.70160459,14.1384746 10.7464379,11.3298877 13.1735266,10.5830787 C14.2489121,10.252184 15.3277159,10.2551215 16.3736893,10.7295502 C16.7584155,10.9040465 17.0834038,11.1629885 17.3668292,11.4746035 C17.4070043,11.5187341 17.4489055,11.5613114 17.523265,11.6396794 L17.523265,11.6396794 Z M12.5686329,15.5723629 C12.5695805,17.0191493 13.7039932,18.0898975 15.2351136,18.089256 C16.5714847,18.088682 17.6468701,16.9801848 17.6447378,15.6054861 C17.6424702,14.1551544 16.5351004,13.0273438 15.1196653,13.0338266 C13.7063624,13.0403094 12.5676852,14.1733874 12.5686329,15.5723629 L12.5686329,15.5723629 Z" id="Dailymotion" fill="#FFFFFE" sketch:type="MSShapeGroup"></path>
        </g>
    </g>
</svg>