<?xml version="1.0" encoding="UTF-8" standalone="no"?>
<svg width="27px" height="27px" viewBox="0 0 27 27" version="1.1" xmlns="http://www.w3.org/2000/svg" xmlns:xlink="http://www.w3.org/1999/xlink" xmlns:sketch="http://www.bohemiancoding.com/sketch/ns">
    <!-- Generator: Sketch 3.3.2 (12043) - http://www.bohemiancoding.com/sketch -->
    <title>Facebook + Facebook</title>
    <desc>Created with Sketch.</desc>
    <defs></defs>
    <g id="Page-1" stroke="none" stroke-width="1" fill="none" fill-rule="evenodd" sketch:type="MSPage">
        <g id="Facebook-+-Facebook" sketch:type="MSLayerGroup">
            <path d="M13.3225831,0.414692308 C6.07193898,0.414692308 0.193972881,6.29930769 0.193972881,13.5581538 C0.193972881,20.8135385 6.07193898,26.6981538 13.3225831,26.6981538 C20.5697695,26.6981538 26.4477356,20.8135385 26.4477356,13.5581538 C26.4477356,6.29930769 20.5697695,0.414692308 13.3225831,0.414692308 L13.3225831,0.414692308 Z" id="Facebook" fill="#43619C" sketch:type="MSShapeGroup"></path>
            <path d="M19.7088203,19.1139231 C19.7088203,19.5016154 19.5186508,19.7543077 19.1348542,19.7543077 L15.9054305,19.7543077 L15.9054305,14.9081538 L17.5478034,14.9081538 L17.7967525,12.8312308 L15.9054305,12.8312308 L15.9054305,11.7512308 C15.9054305,11.1973846 16.0541085,10.7543077 16.8493627,10.7543077 L17.9800068,10.7543077 L17.9800068,9.10315385 C17.6342441,9.07892308 17.0983119,9.027 16.3964136,9.027 C14.9372949,9.027 13.8308542,9.92007692 13.8308542,11.5608462 L13.8308542,12.8312308 L12.1020407,12.8312308 L12.1020407,14.9081538 L13.8308542,14.9081538 L13.8308542,19.7543077 L7.84224407,19.7543077 C7.45498983,19.7543077 7.26136271,19.5016154 7.26136271,19.1139231 L7.26136271,7.80853846 C7.26136271,7.42084615 7.45498983,6.94661538 7.84224407,6.94661538 L19.1348542,6.94661538 C19.5186508,6.94661538 19.7088203,7.42084615 19.7088203,7.80853846 L19.7088203,19.1139231 L19.7088203,19.1139231 Z" id="Facebook" fill="#FFFFFF" sketch:type="MSShapeGroup"></path>
        </g>
    </g>
</svg>