<?xml version="1.0" encoding="UTF-8" standalone="no"?>
<svg width="27px" height="27px" viewBox="0 0 27 27" version="1.1" xmlns="http://www.w3.org/2000/svg" xmlns:xlink="http://www.w3.org/1999/xlink" xmlns:sketch="http://www.bohemiancoding.com/sketch/ns">
    <!-- Generator: Sketch 3.3.2 (12043) - http://www.bohemiancoding.com/sketch -->
    <title>Instagram Circle + Instagram</title>
    <desc>Created with Sketch.</desc>
    <defs></defs>
    <g id="Page-1" stroke="none" stroke-width="1" fill="none" fill-rule="evenodd" sketch:type="MSPage">
        <g id="Instagram-Circle-+-Instagram" sketch:type="MSLayerGroup">
            <path d="M26.3090983,13.4832115 C26.3090983,20.7413654 20.4321695,26.6252885 13.1822169,26.6252885 C5.93226441,26.6252885 0.0549898305,20.7413654 0.0549898305,13.4832115 C0.0549898305,6.22505769 5.93226441,0.341134615 13.1822169,0.341134615 C20.4321695,0.341134615 26.3090983,6.22505769 26.3090983,13.4832115" id="Instagram-Circle" fill="#2A5B83" sketch:type="MSShapeGroup"></path>
            <path d="M18.3441085,7.10359615 L8.68107797,7.10359615 C7.84882712,7.10359615 7.17424407,7.77721154 7.17424407,8.60867308 L7.17424407,18.2895577 C7.17424407,19.1206731 7.84882712,19.7946346 8.68107797,19.7946346 L18.3441085,19.7946346 C19.1763593,19.7946346 19.8509424,19.1206731 19.8509424,18.2895577 L19.8509424,8.60867308 C19.8509424,7.77721154 19.1763593,7.10359615 18.3441085,7.10359615 L18.3441085,7.10359615 Z M16.2857831,9.08636538 C16.2857831,8.86759615 16.4631593,8.68967308 16.6816814,8.68967308 L17.8700678,8.68967308 C18.0889356,8.68967308 18.2663119,8.86759615 18.2663119,9.08636538 L18.2663119,10.2760962 C18.2663119,10.4952115 18.0889356,10.6727885 17.8700678,10.6727885 L16.6816814,10.6727885 C16.4631593,10.6727885 16.2857831,10.4952115 16.2857831,10.2760962 L16.2857831,9.08636538 L16.2857831,9.08636538 Z M13.5272881,11.0289808 C14.8736881,11.0289808 15.965261,12.1193654 15.965261,13.4638269 C15.965261,14.8086346 14.8736881,15.8986731 13.5272881,15.8986731 C12.1812339,15.8986731 11.089661,14.8086346 11.089661,13.4638269 C11.089661,12.1193654 12.1812339,11.0289808 13.5272881,11.0289808 L13.5272881,11.0289808 Z M18.6625559,18.2082115 C18.6625559,18.4269808 18.4851797,18.6049038 18.2663119,18.6049038 L8.75887458,18.6049038 C8.54000678,18.6049038 8.36263051,18.4269808 8.36263051,18.2082115 L8.36263051,12.2592115 L9.94726102,12.2592115 C9.74084068,12.5565577 9.67099661,13.1114423 9.67099661,13.4638269 C9.67099661,15.5874808 11.4011932,17.3154808 13.5272881,17.3154808 C15.6537288,17.3154808 17.3839254,15.5874808 17.3839254,13.4638269 C17.3839254,13.1114423 17.3337898,12.5648654 17.0779254,12.2592115 L18.6625559,12.2592115 L18.6625559,18.2082115 L18.6625559,18.2082115 Z" id="Instagram" fill="#FFFFFF" sketch:type="MSShapeGroup"></path>
        </g>
    </g>
</svg>