<?xml version="1.0" encoding="UTF-8" standalone="no"?>
<svg width="27px" height="27px" viewBox="0 0 27 27" version="1.1" xmlns="http://www.w3.org/2000/svg" xmlns:xlink="http://www.w3.org/1999/xlink" xmlns:sketch="http://www.bohemiancoding.com/sketch/ns">
    <!-- Generator: Sketch 3.3.2 (12043) - http://www.bohemiancoding.com/sketch -->
    <title>Linkedin Circle + Linkedin</title>
    <desc>Created with Sketch.</desc>
    <defs></defs>
    <g id="Page-1" stroke="none" stroke-width="1" fill="none" fill-rule="evenodd" sketch:type="MSPage">
        <g id="Linkedin-Circle-+-Linkedin" sketch:type="MSLayerGroup">
            <path d="M26.6829017,13.4491154 C26.6829017,20.7072692 20.8056271,26.5911923 13.5556746,26.5911923 C6.30572203,26.5911923 0.428447458,20.7072692 0.428447458,13.4491154 C0.428447458,6.19096154 6.30572203,0.307038462 13.5556746,0.307038462 C20.8056271,0.307038462 26.6829017,6.19096154 26.6829017,13.4491154" id="Linkedin-Circle" fill="#187FB8" sketch:type="MSShapeGroup"></path>
            <path d="M7.72957288,11.4625385 L10.2156068,11.4625385 L10.2156068,19.3486154 L7.72957288,19.3486154 L7.72957288,11.4625385 Z M17.0081153,11.3867308 C15.5839186,11.3867308 14.6915051,12.159 14.5265763,12.7003846 L14.5265763,11.4625385 L11.7338508,11.4625385 C11.7698102,12.1198846 11.7338508,19.3486154 11.7338508,19.3486154 L14.5265763,19.3486154 L14.5265763,15.0812308 C14.5265763,14.8441154 14.5155119,14.607 14.5874305,14.4366923 C14.7793288,13.9624615 15.1918237,13.4702308 15.9334847,13.4702308 C16.9033492,13.4702308 17.3441966,14.1995769 17.3441966,15.2678077 L17.3441966,19.3486154 L20.1632,19.3486154 L20.1632,14.9638846 C20.1632,12.5210769 18.7749627,11.3867308 17.0081153,11.3867308 Z M8.92660339,7.74 C8.00860339,7.74 7.40801356,8.33019231 7.40801356,9.10903846 C7.40801356,9.87334615 7.99166102,10.476 8.89133559,10.476 L8.90931525,10.476 C9.84391186,10.476 10.4258305,9.87092308 10.4258305,9.10696154 C10.4078508,8.32880769 9.84391186,7.74 8.92660339,7.74 Z" id="Linkedin" fill="#FFFFFF" sketch:type="MSShapeGroup"></path>
        </g>
    </g>
</svg>