<?xml version="1.0" encoding="UTF-8" standalone="no"?>
<svg width="27px" height="27px" viewBox="0 0 27 27" version="1.1" xmlns="http://www.w3.org/2000/svg" xmlns:xlink="http://www.w3.org/1999/xlink" xmlns:sketch="http://www.bohemiancoding.com/sketch/ns">
    <!-- Generator: Sketch 3.3.2 (12043) - http://www.bohemiancoding.com/sketch -->
    <title>Twitter Circle + Twitter</title>
    <desc>Created with Sketch.</desc>
    <defs></defs>
    <g id="Page-1" stroke="none" stroke-width="1" fill="none" fill-rule="evenodd" sketch:type="MSPage">
        <g id="Twitter-Circle-+-Twitter" sketch:type="MSLayerGroup">
            <path d="M26.821539,13.5564231 C26.821539,20.8145769 20.9442644,26.6985 13.6943119,26.6985 C6.44435932,26.6985 0.567084746,20.8145769 0.567084746,13.5564231 C0.567084746,6.29826923 6.44435932,0.414346154 13.6943119,0.414346154 C20.9442644,0.414346154 26.821539,6.29826923 26.821539,13.5564231" id="Twitter-Circle" fill="#24A9E6" sketch:type="MSShapeGroup"></path>
            <path d="M19.6528407,8.28103846 C19.1390373,8.59326923 18.5712949,8.82034615 17.9644814,8.94184615 C17.4811051,8.41223077 16.7902712,8.08130769 16.0254441,8.08130769 C14.5594102,8.08130769 13.3696407,9.30253846 13.3696407,10.8086538 C13.3696407,11.0222308 13.392461,11.2299231 13.4381017,11.4296538 C11.230061,11.3157692 9.27269831,10.2312692 7.9615661,8.57907692 C7.73267119,8.98338462 7.60197288,9.45242308 7.60197288,9.95157692 C7.60197288,10.8976154 8.07082712,11.7325385 8.78413559,12.2216538 C8.3491661,12.2085 7.93874576,12.0845769 7.57984407,11.8813846 L7.57984407,11.9149615 C7.57984407,13.2369231 8.49576949,14.3397692 9.71216271,14.5893462 C9.48949153,14.6533846 9.25437288,14.6852308 9.01199322,14.6852308 C8.84084068,14.6852308 8.67383729,14.6689615 8.51202034,14.6371154 C8.85017627,15.7202308 9.83075932,16.5091154 10.9935593,16.5298846 C10.0845492,17.262 8.93834576,17.6981538 7.69394576,17.6981538 C7.47957288,17.6981538 7.26762034,17.6856923 7.06016271,17.6607692 C8.23575593,18.4333846 9.63298305,18.8851154 11.1329017,18.8851154 C16.0202576,18.8851154 18.6919661,14.7298846 18.6919661,11.1253846 C18.6919661,11.0066538 18.6898915,10.8882692 18.6853966,10.7719615 C19.2043864,10.3870385 19.655261,9.90726923 20.0100136,9.36034615 C19.5342441,9.57703846 19.0218237,9.72380769 18.4845085,9.78957692 C19.0332339,9.45242308 19.4543729,8.91761538 19.6528407,8.28103846" id="Twitter" fill="#FFFFFF" sketch:type="MSShapeGroup"></path>
        </g>
    </g>
</svg>